HIERARCHY
ROOT SpineBase
{
  OFFSET 0.000000 0.000000 0.000000
  CHANNELS 6 Xposition Yposition Zposition Zrotation Xrotation Yrotation
  JOINT SpineMid
  {
    OFFSET 0.000000 26.870659 0.000000
    CHANNELS 3 Zrotation Xrotation Yrotation
    JOINT SpineShoulder
    {
      OFFSET -0.057175 20.078774 -0.568741
      CHANNELS 3 Zrotation Xrotation Yrotation
      JOINT Neck
      {
        OFFSET -0.032670 6.683594 -0.453264
        CHANNELS 3 Zrotation Xrotation Yrotation
        JOINT Head
        {
          OFFSET 2.959941 11.701089 0.668772
          CHANNELS 3 Zrotation Xrotation Yrotation
          End Site
          {
            OFFSET 0 0 0
          }
        }
      }
      JOINT ShoulderLeft
      {
        OFFSET -11.234545 -3.144685 -6.512705
        CHANNELS 3 Zrotation Xrotation Yrotation
        JOINT ElbowLeft
        {
          OFFSET -5.721726 -23.812862 1.231775
          CHANNELS 3 Zrotation Xrotation Yrotation
          JOINT WristLeft
          {
            OFFSET -4.760702 -18.085913 -1.454780
            CHANNELS 3 Zrotation Xrotation Yrotation
            JOINT HandLeft
            {
              OFFSET -0.684075 -5.282687 -2.711925
              CHANNELS 3 Zrotation Xrotation Yrotation
              JOINT HandTipLeft
              {
                OFFSET 0.115123 -5.755462 -1.228156
                CHANNELS 3 Zrotation Xrotation Yrotation
                End Site
                {
                  OFFSET 0 0 0
                }
              }
              JOINT ThumbLeft
              {
                OFFSET -2.868252 -0.234166 -0.889884
                CHANNELS 3 Zrotation Xrotation Yrotation
                End Site
                {
                  OFFSET 0 0 0
                }
              }
            }
          }
        }
      }
      JOINT ShoulderRight
      {
        OFFSET 10.750973 -3.302080 3.516814
        CHANNELS 3 Zrotation Xrotation Yrotation
        JOINT ElbowRight
        {
          OFFSET 1.869803 -23.986374 3.702232
          CHANNELS 3 Zrotation Xrotation Yrotation
          JOINT WristRight
          {
            OFFSET -2.780244 -23.000057 -12.078750
            CHANNELS 3 Zrotation Xrotation Yrotation
            JOINT HandRight
            {
              OFFSET -2.136416 -10.220093 -1.753986
              CHANNELS 3 Zrotation Xrotation Yrotation
              JOINT HandTipRight
              {
                OFFSET -0.636119 -3.257193 -0.378361
                CHANNELS 3 Zrotation Xrotation Yrotation
                End Site
                {
                  OFFSET 0 0 0
                }
              }
              JOINT ThumbRight
              {
                OFFSET 2.096993 -1.342647 0.118083
                CHANNELS 3 Zrotation Xrotation Yrotation
                End Site
                {
                  OFFSET 0 0 0
                }
              }
            }
          }
        }
      }
    }
  }
  JOINT HipLeft
  {
    OFFSET -5.561359 1.199522 -4.928073
    CHANNELS 3 Zrotation Xrotation Yrotation
    JOINT KneeLeft
    {
      OFFSET -3.023696 -30.362551 -1.072687
      CHANNELS 3 Zrotation Xrotation Yrotation
      JOINT AnkleLeft
      {
        OFFSET -1.814706 -31.693836 5.461469
        CHANNELS 3 Zrotation Xrotation Yrotation
        JOINT FootLeft
        {
          OFFSET 4.549958 -7.872443 0.748593
          CHANNELS 3 Zrotation Xrotation Yrotation
          End Site
          {
            OFFSET 0 0 0
          }
        }
      }
    }
  }
  JOINT HipRight
  {
    OFFSET 5.241178 0.569875 -1.184874
    CHANNELS 3 Zrotation Xrotation Yrotation
    JOINT KneeRight
    {
      OFFSET -0.151770 -29.072945 1.423688
      CHANNELS 3 Zrotation Xrotation Yrotation
      JOINT AnkleRight
      {
        OFFSET -4.381570 -34.885454 5.390629
        CHANNELS 3 Zrotation Xrotation Yrotation
        JOINT FootRight
        {
          OFFSET -1.612421 -5.322408 -6.652683
          CHANNELS 3 Zrotation Xrotation Yrotation
          End Site
          {
            OFFSET 0 0 0
          }
        }
      }
    }
  }
}
MOTION
Frames: 10
Frame Time: 0.033333
18.726153 74.422387 355.592111 -0.000000 0.000000 -19.111771 -0.000000 0.000000 19.111771 -0.000000 0.000000 0.000000 -0.000000 0.000000 0.000000 0.000000 0.000000 0.000000 -0.000000 0.000000 0.000000 -0.000000 0.000000 0.000000 -0.000000 0.000000 0.000000 -0.000000 0.000000 0.000000 0.000000 0.000000 0.000000 0.000000 0.000000 0.000000 -0.000000 0.000000 0.000000 -0.000000 0.000000 0.000000 -0.000000 0.000000 0.000000 -0.000000 0.000000 0.000000 0.000000 0.000000 0.000000 0.000000 0.000000 0.000000 -0.000000 0.000000 19.111771 -0.000000 0.000000 0.000000 -0.000000 0.000000 0.000000 0.000000 0.000000 0.000000 -0.000000 0.000000 19.111771 -0.000000 0.000000 0.000000 -0.000000 0.000000 0.000000 0.000000 0.000000 0.000000
18.661479 74.358248 355.591956 0.062703 0.150249 -19.035997 -0.010269 -0.162483 19.035900 -0.000000 0.000000 0.000000 -0.000000 0.000000 0.000000 0.000000 0.000000 0.000000 -0.378289 1.219667 -0.308537 0.619681 1.910996 -0.527045 1.067899 -5.039558 0.535844 -2.119539 0.458163 0.588639 0.000000 0.000000 0.000000 0.000000 0.000000 0.000000 -0.638788 0.765791 -0.034682 3.138600 -5.812929 -0.526998 -2.172024 5.766289 0.567468 -0.389049 -0.743594 0.219777 0.000000 0.000000 0.000000 0.000000 0.000000 0.000000 -0.010269 -0.162483 19.035900 -0.000000 0.000000 0.000000 3.114911 -0.013868 0.284163 0.000000 0.000000 0.000000 -0.010269 -0.162483 19.035900 -0.000000 0.000000 0.000000 5.525800 6.784641 -8.758862 0.000000 0.000000 0.000000
18.604246 74.301692 355.591447 0.117386 0.303787 -19.019140 -0.011980 -0.325457 19.018794 -0.000000 0.000000 0.000000 -0.000000 0.000000 0.000000 0.000000 0.000000 0.000000 -0.695193 2.381036 -0.593476 1.417249 3.490194 -0.984047 1.807505 -9.467374 1.183121 -3.618327 0.934492 1.064769 0.000000 0.000000 0.000000 0.000000 0.000000 0.000000 -1.021829 1.319089 -0.043233 5.996203 -11.109280 -0.853179 -4.037307 11.215118 1.173385 -0.734985 -2.397824 0.640615 0.000000 0.000000 0.000000 0.000000 0.000000 0.000000 -0.011980 -0.325457 19.018794 -0.000000 0.000000 0.000000 5.335596 -0.057315 0.464735 0.000000 0.000000 0.000000 -0.011980 -0.325457 19.018794 -0.000000 0.000000 0.000000 10.054056 10.924754 -15.355546 0.000000 0.000000 0.000000
18.554455 74.252721 355.590583 0.164141 0.460730 -19.062212 -0.004671 -0.489073 19.061532 -0.000000 0.000000 0.000000 -0.114064 0.978015 -0.239737 0.000000 0.000000 0.000000 -0.952847 3.487521 -0.858137 2.382090 4.772566 -1.381842 2.167895 -13.280917 1.888608 -4.455399 1.400847 1.369683 0.000000 0.000000 0.000000 0.000000 0.000000 0.000000 -1.150299 1.660581 -0.031520 8.534572 -15.734046 -1.036426 -5.420059 16.175240 1.653199 -1.217660 -2.896011 0.884176 0.000000 0.000000 0.000000 0.000000 0.000000 0.000000 -0.004671 -0.489073 19.061532 -0.000000 0.000000 0.000000 6.752936 -0.137903 0.552412 0.000000 0.000000 0.000000 -0.004671 -0.489073 19.061532 0.977617 -0.230534 0.182129 12.293220 13.392385 -19.996424 0.000000 0.000000 0.000000
18.512104 74.211333 355.589364 0.203044 0.621200 -19.166157 0.114328 0.203608 19.178442 -0.005016 0.120499 0.016340 -0.376784 0.366628 -0.351658 0.000000 0.000000 0.000000 -1.522270 3.647019 -1.156230 3.509683 5.789875 -1.727899 2.098066 -16.491663 2.596886 -4.603698 1.839278 1.456097 0.000000 0.000000 0.000000 0.000000 0.000000 0.000000 -1.396527 0.895338 -0.051150 10.705562 -19.574319 -1.149146 -6.126482 20.502019 1.823865 -1.982728 -2.992348 1.107393 0.000000 0.000000 0.000000 0.000000 0.000000 0.000000 0.012152 -0.653427 19.165125 -0.000000 0.000000 0.000000 7.433808 -0.259730 0.553721 0.000000 0.000000 0.000000 0.012152 -0.653427 19.165125 1.240286 -0.285412 0.230823 13.859602 14.470146 -22.518611 0.000000 0.000000 0.000000
18.477194 74.177528 355.587791 0.234159 0.785323 -19.331839 0.125471 0.252022 19.346088 -0.003303 0.130525 0.019130 -0.252690 0.414016 -0.434068 0.000000 0.000000 0.000000 -1.723524 4.438455 -1.402602 4.801060 6.569195 -2.026702 1.553183 -19.123557 3.254839 -4.049393 2.241031 1.292939 0.000000 0.000000 0.000000 0.000000 0.000000 0.000000 -1.076219 0.598980 -0.007871 12.456916 -22.560413 -1.272237 -5.992198 24.067342 1.529284 -3.100469 -2.663206 1.296967 0.000000 0.000000 0.000000 0.000000 0.000000 0.000000 0.039011 -0.818558 19.330513 -0.000000 0.000000 0.000000 7.418891 -0.424697 0.470720 0.000000 0.000000 0.000000 0.039011 -0.818558 19.330513 1.469816 -0.329050 0.273001 14.184079 14.630308 -23.273940 0.000000 0.000000 0.000000
18.427576 74.130227 355.580616 0.211500 0.960709 -19.480133 0.124607 0.282977 19.494785 -0.018093 0.133220 0.017923 0.288905 0.677609 -0.579885 0.000000 0.000000 0.000000 -2.019640 4.874375 -1.560567 6.654533 7.909752 -2.521761 -0.887855 -22.687319 4.410143 0.401561 4.097597 -0.638624 0.000000 0.000000 0.000000 0.000000 0.000000 0.000000 -0.331641 0.044195 0.080020 14.657926 -26.164793 -1.400500 -5.065808 26.668311 1.095130 -4.882148 0.275137 1.017203 0.000000 0.000000 0.000000 0.000000 0.000000 0.000000 0.120984 -0.976244 19.479391 -0.000000 0.000000 0.000000 5.435648 -0.398430 0.297637 0.000000 0.000000 0.000000 0.120984 -0.976244 19.479391 1.691136 -0.376102 0.314551 17.239564 17.036404 -27.790329 0.000000 0.000000 0.000000
18.397534 74.106745 355.570301 0.220592 1.142148 -19.763676 0.130324 0.344158 19.780003 -0.005780 0.136983 0.020742 0.542463 0.734850 -0.675460 0.000000 0.000000 0.000000 -2.222623 5.494069 -1.771021 8.475564 8.377400 -2.770726 -2.916487 -24.492712 4.898807 3.555248 2.894184 -1.858719 0.000000 0.000000 0.000000 0.000000 0.000000 0.000000 0.541307 -0.715172 0.194712 16.033065 -28.441083 -1.605157 -1.803548 27.451966 -0.564883 -7.680737 4.571870 0.483653 0.000000 0.000000 0.000000 0.000000 0.000000 0.000000 0.178618 -1.149459 19.763269 -0.000000 0.000000 0.000000 2.271546 -1.217749 -0.457951 0.000000 0.000000 0.000000 0.178618 -1.149459 19.763269 1.860481 -0.469726 0.354636 15.011814 15.291862 -24.975393 0.000000 0.000000 0.000000
18.375431 74.099193 355.544973 0.206289 1.348120 -20.209046 0.149607 0.399048 20.227282 0.011763 0.111276 0.023611 0.799614 0.506058 -0.689957 0.000000 0.000000 0.000000 -2.149968 6.373970 -2.032606 10.299558 8.251641 -2.841019 -4.676119 -25.035138 4.940222 4.794233 1.623056 -2.083470 0.000000 0.000000 0.000000 0.000000 0.000000 0.000000 1.577247 -1.440067 0.354712 16.207952 -29.476847 -1.865790 2.967996 30.623871 -4.612647 -9.597467 2.994985 1.167166 0.000000 0.000000 0.000000 0.000000 0.000000 0.000000 0.272143 -1.336386 20.209793 -0.000000 0.000000 0.000000 1.112698 -1.646292 -0.823995 0.000000 0.000000 0.000000 0.272143 -1.336386 20.209793 1.976610 -0.449240 0.370214 6.319570 7.993901 -12.778955 0.000000 0.000000 0.000000
18.417394 74.121827 355.560347 0.284938 1.500591 -20.719169 0.115502 0.426988 20.738222 0.027338 0.080296 0.027612 0.964704 0.351362 -0.705719 0.000000 0.000000 0.000000 -1.827626 7.361236 -2.306405 11.563776 7.056495 -2.496412 -4.895686 -22.486605 4.067207 3.395182 -1.090284 -0.614473 0.000000 0.000000 0.000000 0.000000 0.000000 0.000000 2.613404 -1.970960 0.538861 15.449688 -27.627708 -2.828177 3.317446 30.222480 -4.765813 -8.335465 0.786944 1.714970 0.000000 0.000000 0.000000 0.000000 0.000000 0.000000 0.830029 -2.087831 20.799557 -0.321442 0.746156 -0.060828 0.809161 -2.537650 -1.363532 0.000000 0.000000 0.000000 0.264407 -1.504344 20.718908 2.062749 -0.372203 0.372882 3.509850 5.261341 -8.709455 0.000000 0.000000 0.000000
